<?xml version="1.0" encoding="utf-8"?>
<!-- Generator: Adobe Illustrator 19.2.1, SVG Export Plug-In . SVG Version: 6.00 Build 0)  -->
<svg version="1.1" id="Capa_1" xmlns="http://www.w3.org/2000/svg" xmlns:xlink="http://www.w3.org/1999/xlink" x="0px" y="0px"
	 viewBox="0 0 423 103" style="enable-background:new 0 0 423 103;" xml:space="preserve">
<style type="text/css">
	.st0{fill:#072051;}
</style>
<g>
	<g>
		<g>
			<path class="st0" d="M241.2,64.6c0.2,2.2,1.2,5.5,3.1,5.5h2.3c0.3,0,0.4,0.2,0.4,0.4v1.6c0,0.2-0.1,0.4-0.6,0.4
				c-0.6,0-2.2-0.2-6.6-0.2c-5.1,0-7.1,0.2-7.7,0.2c-0.5,0-0.5-0.1-0.5-0.5v-1.5c0-0.2,0-0.4,0.4-0.4h2.5c1.9,0,2.6-2.7,2.9-4.6
				c0.5-4.2,1-18.2,1-19.3l0-9.1c0-2.7-0.6-4.5-3.3-4.5h-1.9c-0.4,0-0.4-0.2-0.4-0.4v-1.7c0-0.2,0.1-0.4,0.4-0.4
				c0.6,0,2.2,0.2,9.2,0.2c2.8,0,4.6-0.2,5.3-0.2c0.6,0,1.1,0.1,1.4,1c3.8,10.1,8.1,20,11.4,28.9c0.7-1.1,5.2-12.2,5.5-13
				c0.2-0.6,6.2-14.8,6.5-16c0.2-0.7,1-0.7,2.7-0.7c9.3,0,11.3-0.2,12-0.2c0.3,0,0.4,0.2,0.4,0.5V32c0,0.4,0,0.5-0.5,0.5h-2.6
				c-1.4,0-1.5,1.1-1.5,2.3c0,0.9,0.1,15.5,0.1,16.8c0,1.2,0.2,14.2,0.2,15.3c0,2.3,0.5,3.2,1.3,3.2h2.9c0.4,0,0.4,0.2,0.4,0.4V72
				c0,0.4,0,0.5-0.5,0.5c-0.7,0-1.8-0.2-8.8-0.2c-6.1,0-8.4,0.2-9.2,0.2c-0.4,0-0.5-0.2-0.5-0.5v-1.5c0-0.3,0.1-0.4,0.5-0.4h3.3
				c1,0,1.5-0.4,1.7-2c0.1-0.7,0.2-11.5,0.2-15.7V34.3h-0.4c-0.6,1-7.3,17.2-8.3,19.6c-1.2,2.7-6.5,15.9-6.9,16.5
				c-0.3,0.5-0.7,1.4-1.4,1.4c-0.4,0-0.8-0.4-1-1.1c-0.2-0.4-8-18.8-8.5-19.9c-1-2.7-6.5-16-7-16.8c-0.2,0.8-0.4,15.9-0.4,16.6
				C240.8,51.3,240.9,59.3,241.2,64.6z M134.9,50.5c0-0.7,0.2-15.7,0.4-16.6c0.5,0.7,5.9,14,7,16.8c0.4,1.1,8.3,19.5,8.5,19.9
				c0.3,0.7,0.6,1.1,1,1.1c0.7,0,1.2-0.9,1.4-1.4c0.3-0.5,5.6-13.7,6.9-16.5c1.1-2.4,7.7-18.6,8.3-19.6h0.4v18.1
				c0,4.2-0.2,15-0.2,15.7c-0.1,1.7-0.6,2-1.7,2h-3.3c-0.4,0-0.5,0.1-0.5,0.4V72c0,0.4,0.1,0.5,0.5,0.5c0.8,0,3.1-0.2,9.2-0.2
				c7,0,8.1,0.2,8.8,0.2c0.5,0,0.5-0.2,0.5-0.5v-1.5c0-0.2,0-0.4-0.4-0.4h-2.9c-0.8,0-1.3-1-1.3-3.2c0-1.1-0.2-14.1-0.2-15.3
				c0-1.2-0.1-15.9-0.1-16.8c0-1.2,0.2-2.3,1.5-2.3h2.6c0.4,0,0.5-0.2,0.5-0.5v-1.4c0-0.4,0-0.5-0.4-0.5c-0.6,0-2.7,0.2-12,0.2
				c-1.7,0-2.5,0.1-2.7,0.7c-0.3,1.2-6.3,15.4-6.5,16c-0.4,0.8-4.9,11.9-5.5,13c-3.3-8.9-7.6-18.8-11.4-28.9c-0.3-1-0.8-1-1.4-1
				c-0.7,0-2.5,0.2-5.3,0.2c-7,0-8.6-0.2-9.2-0.2c-0.4,0-0.4,0.2-0.4,0.4v1.7c0,0.2,0.1,0.4,0.4,0.4h1.9c2.7,0,3.3,1.8,3.3,4.5
				l0,9.1c0,1.1-0.5,15.1-1,19.3c-0.2,1.9-1,4.6-2.9,4.6h-2.5c-0.3,0-0.4,0.2-0.4,0.4V72c0,0.5,0,0.5,0.5,0.5c0.6,0,2.6-0.2,7.7-0.2
				c4.4,0,5.9,0.2,6.6,0.2c0.5,0,0.6-0.2,0.6-0.4v-1.6c0-0.2-0.1-0.4-0.4-0.4h-2.3c-1.9,0-2.9-3.3-3.1-5.5
				C135,59.3,134.9,51.3,134.9,50.5z M225.4,58.8h2.6v0.3c0,7.5-3.6,11.8-9.7,11.8c-3.2,0-5.9-1.3-8.5-3.8c-1.8,1.2-3.7,2.2-5.8,2.9
				s-4.2,1-6.4,1.1c-6.7,0-10.9-4.1-10.9-10.3c0-5.3,3.4-9,10.5-11.6c-1.7-3.1-2.7-5.7-2.7-8.5c0-5.5,3.7-9.1,9.9-9.1
				c5.6,0,9,2.8,9,7.3c0,3.9-3.7,7.5-8.7,10c2.6,4.2,5.2,8,7.9,11.5c3.2-4,6-8,6-10c0-1.8-0.9-2.6-3.2-2.6v-2.6h12.4v2.6
				c-3.2,0.4-4.7,2.2-6.5,5.2c-1.7,3-4.7,7.2-6.8,10c2.2,2.5,4,3.8,5.8,3.8C222.8,66.7,225.2,63.3,225.4,58.8z M199.8,38.6
				c0,1.8,0.8,4.5,3,7.3c3.1-1.6,6.6-4.3,6.6-7c0,0,0,0,0,0v0c0,0,0,0,0,0c0-2.9-2.3-4.7-5.1-4.7C202.1,34.2,199.8,35.9,199.8,38.6z
				 M207.6,64.7c-3.4-4.1-6.3-8.4-8.9-13c-2.3,0.8-3.6,2.8-3.6,5.5v0c0,4.8,3.6,9.3,8,9.3c0.8,0,1.6-0.2,2.4-0.5
				C206.3,65.7,206.9,65.2,207.6,64.7z M308.8-0.7h-76v5.3h70.7v56.9h5.3L308.8-0.7L308.8-0.7z M182,97.2h-71.7V61.5H105v40.9h77
				V97.2z"/>
		</g>
	</g>
</g>
</svg>
