<?xml version="1.0" encoding="utf-8"?>
<!-- Generator: Adobe Illustrator 19.2.1, SVG Export Plug-In . SVG Version: 6.00 Build 0)  -->
<svg version="1.1" id="Capa_1" xmlns="http://www.w3.org/2000/svg" xmlns:xlink="http://www.w3.org/1999/xlink" x="0px" y="0px"
	 viewBox="0 0 290.5 147" style="enable-background:new 0 0 290.5 147;" xml:space="preserve">
<style type="text/css">
	.st0{fill:#FFFFFF;}
</style>
<g>
	<g>
		<path class="st0" d="M194.3,77.3c0.3,3.1,1.6,7.9,4.4,7.9h3.3c0.4,0,0.6,0.3,0.6,0.6v2.3c0,0.3-0.1,0.6-0.8,0.6
			c-0.9,0-3.2-0.3-9.4-0.3c-7.2,0-10.2,0.3-11,0.3c-0.7,0-0.7-0.1-0.7-0.8v-2.2c0-0.3,0.1-0.5,0.5-0.5h3.5c2.7,0,3.7-3.9,4.1-6.6
			c0.7-6,1.5-26,1.5-27.5l-0.1-13c0-3.9-0.9-6.4-4.7-6.4h-2.8c-0.5,0-0.6-0.3-0.6-0.6v-2.4c0-0.3,0.1-0.5,0.6-0.5
			c0.9,0,3.1,0.3,13.2,0.3c3.9,0,6.6-0.3,7.6-0.3c0.9,0,1.6,0.1,2,1.4c5.4,14.4,11.5,28.5,16.3,41.2c1-1.6,7.4-17.4,7.9-18.6
			c0.3-0.8,8.8-21.1,9.3-22.8c0.2-0.9,1.4-1,3.8-1c13.2,0,16.1-0.3,17.1-0.3c0.5,0,0.5,0.3,0.5,0.8v2c0,0.5-0.1,0.8-0.7,0.8h-3.7
			c-2,0-2.2,1.5-2.2,3.3c0,1.3,0.1,22.1,0.2,23.9c0,1.7,0.3,20.3,0.3,21.8c0,3.2,0.7,4.6,1.9,4.6h4.1c0.5,0,0.6,0.3,0.6,0.6v2.1
			c0,0.5-0.1,0.8-0.7,0.8c-1,0-2.5-0.3-12.5-0.3c-8.6,0-11.9,0.3-13.1,0.3c-0.6,0-0.7-0.3-0.7-0.8v-2.1c0-0.4,0.1-0.6,0.7-0.6h4.7
			c1.5,0,2.2-0.5,2.4-2.9c0.1-1,0.3-16.4,0.3-22.4V34.1h-0.5c-0.9,1.4-10.3,24.5-11.9,28c-1.8,3.9-9.3,22.7-9.8,23.5
			c-0.4,0.7-1,1.9-2,1.9c-0.6,0-1.1-0.6-1.5-1.5c-0.3-0.6-11.5-26.9-12.1-28.4c-1.5-3.9-9.3-22.9-9.9-23.9
			c-0.3,1.2-0.6,22.6-0.6,23.6C193.6,58.3,193.7,69.9,194.3,77.3z M42.7,57.3c0-1,0.2-22.5,0.6-23.6c0.7,1,8.5,20,9.9,23.9
			C53.8,59.1,65,85.4,65.3,86c0.4,0.9,0.9,1.5,1.5,1.5c1,0,1.6-1.3,2-1.9c0.4-0.8,8-19.6,9.8-23.5c1.5-3.5,11-26.5,11.9-28h0.5v25.8
			c0,5.9-0.2,21.3-0.3,22.4c-0.2,2.4-0.9,2.9-2.4,2.9h-4.7c-0.6,0-0.7,0.2-0.7,0.6v2.1c0,0.5,0.1,0.8,0.7,0.8
			c1.1,0,4.4-0.3,13.1-0.3c10,0,11.5,0.3,12.5,0.3c0.7,0,0.7-0.3,0.7-0.8v-2.1c0-0.3-0.1-0.6-0.6-0.6h-4.1c-1.2,0-1.9-1.4-1.9-4.6
			c0-1.5-0.3-20.1-0.3-21.8c-0.1-1.8-0.2-22.6-0.2-23.9c0-1.8,0.2-3.3,2.2-3.3h3.7c0.6,0,0.7-0.3,0.7-0.8v-2c0-0.5-0.1-0.8-0.5-0.8
			c-0.9,0-3.8,0.3-17.1,0.3c-2.5,0-3.6,0.1-3.8,1c-0.4,1.7-8.9,21.9-9.3,22.8c-0.5,1.2-6.9,16.9-7.9,18.6C66.1,58.1,60,44,54.6,29.6
			c-0.4-1.4-1.1-1.4-2-1.4c-1,0-3.6,0.3-7.6,0.3c-10,0-12.3-0.3-13.2-0.3c-0.5,0-0.6,0.3-0.6,0.5v2.4c0,0.3,0.1,0.6,0.6,0.6h2.8
			c3.8,0,4.7,2.5,4.7,6.4l0.1,13c0,1.5-0.7,21.5-1.5,27.5c-0.3,2.7-1.4,6.6-4.1,6.6h-3.5c-0.5,0-0.5,0.3-0.5,0.5v2.2
			c0,0.7,0.1,0.8,0.7,0.8c0.8,0,3.7-0.3,11-0.3c6.2,0,8.5,0.3,9.4,0.3c0.7,0,0.8-0.3,0.8-0.6v-2.3c0-0.3-0.1-0.6-0.6-0.6h-3.3
			c-2.8,0-4.1-4.7-4.4-7.9C42.8,69.9,42.7,58.3,42.7,57.3z M171.7,69.1h3.7v0.4c0,10.7-5.2,16.9-13.8,16.9c-4.5,0-8.4-1.8-12.1-5.5
			c-2.6,1.8-5.3,3.1-8.3,4.1s-6,1.5-9.1,1.6c-9.5,0-15.5-5.8-15.5-14.6c0-7.5,4.8-12.8,14.9-16.5c-2.4-4.3-3.9-8.1-3.9-12.1
			c0-7.9,5.3-13,14.1-13c8,0,12.8,4.1,12.8,10.4c0,5.5-5.3,10.7-12.4,14.2c3.7,5.9,7.4,11.4,11.2,16.4C158,65.6,162,59.9,162,57
			c0-2.6-1.3-3.7-4.6-3.8v-3.7h17.8v3.7c-4.6,0.6-6.7,3.2-9.2,7.4c-2.4,4.3-6.7,10.3-9.6,14.3c3.2,3.6,5.7,5.5,8.3,5.5
			C168,80.4,171.3,75.4,171.7,69.1z M135.2,40.3c0,2.6,1.1,6.4,4.2,10.4c4.4-2.3,9.4-6.2,9.4-10c0,0,0,0,0,0v0c0,0,0,0,0,0
			c0-4.1-3.3-6.6-7.2-6.6C138.5,34,135.2,36.5,135.2,40.3z M146.2,77.5c-4.8-5.8-9-12-12.6-18.6c-3.3,1.1-5.1,4-5.1,7.8v0
			c0,6.9,5.2,13.2,11.4,13.2c1.2,0,2.3-0.2,3.4-0.7C144.4,78.9,145.4,78.3,146.2,77.5z M30.7,105.7v0.7c1.5,0.1,1.7,0.2,1.7,2v7.9
			c0,1.7-0.2,1.8-1.9,2v0.6H37v-0.6c-1.9-0.1-2.1-0.3-2.1-2v-2.9l1.5,0.3c0.2,0,0.6,0,0.9,0c2.2-0.3,4.4-1.5,4.4-4.2
			c0-1.3-0.6-2.3-1.5-2.9c-0.9-0.6-2.1-0.8-3.8-0.8L30.7,105.7L30.7,105.7z M34.9,107.4c0-0.4,0.1-0.6,0.2-0.8
			c0.1-0.1,0.5-0.2,1-0.2c1.5,0,2.9,0.8,2.9,3.1c0,2.7-1.7,3.2-2.8,3.2c-0.5,0-1-0.1-1.3-0.2L34.9,107.4L34.9,107.4z M65.1,118.4
			c-0.5-0.1-0.9-0.4-1.4-0.9c-0.5-0.4-0.9-1.1-1.7-2.2c-0.7-0.9-1.5-2.3-1.8-2.9c1.5-0.6,2.7-1.6,2.7-3.3c0-1.3-0.6-2.1-1.4-2.7
			c-0.9-0.5-1.9-0.7-3.7-0.7h-5.8v0.7c1.6,0.1,1.8,0.3,1.8,1.9v7.9c0,1.7-0.2,1.8-1.9,2v0.6H58v-0.6c-1.7-0.1-1.9-0.3-1.9-2v-3.1
			h0.5c0.8,0,1.2,0.2,1.6,0.9c0.6,1,1.3,2.2,1.9,3.1c0.9,1.3,1.8,1.8,4.1,1.9c0.2,0,0.5,0,0.7,0L65.1,118.4z M56.2,112.4v-4.9
			c0-0.5,0-0.7,0.2-0.8c0.2-0.1,0.5-0.2,1-0.2c1.4,0,2.8,0.8,2.8,3c0,1.1-0.3,1.9-1.1,2.4c-0.5,0.4-1.2,0.5-2.2,0.5H56.2z
			 M81.9,105.4c-4.8,0-7.5,3.4-7.5,6.9c0,3.9,3,6.8,7.2,6.8c4.1,0,7.4-2.7,7.4-7C89,108.1,85.7,105.4,81.9,105.4z M81.5,106.2
			c2.7,0,4.6,2.4,4.6,6.5c0,3.8-1.8,5.6-4,5.6c-2.9,0-4.7-2.9-4.7-6.4C77.3,108.3,79.2,106.2,81.5,106.2z M99.3,105.7v0.7
			c1.5,0.1,1.7,0.2,1.7,2v7.9c0,1.7-0.2,1.8-1.9,2v0.6h6.4v-0.6c-1.9-0.1-2.1-0.3-2.1-2v-2.9l1.5,0.3c0.2,0,0.6,0,0.9,0
			c2.2-0.3,4.4-1.5,4.4-4.2c0-1.3-0.6-2.3-1.5-2.9c-0.9-0.6-2.1-0.8-3.8-0.8L99.3,105.7L99.3,105.7z M103.5,107.4
			c0-0.4,0.1-0.6,0.2-0.8c0.1-0.1,0.5-0.2,0.9-0.2c1.5,0,2.9,0.8,2.9,3.1c0,2.7-1.7,3.2-2.8,3.2c-0.5,0-1-0.1-1.3-0.2L103.5,107.4
			L103.5,107.4z M126.7,118.8v-0.6c-1.7-0.1-1.8-0.3-1.8-2v-7.8c0-1.7,0.2-1.8,1.8-2v-0.7h-6.2v0.7c1.7,0.1,1.9,0.3,1.9,2v7.8
			c0,1.7-0.2,1.8-1.9,2v0.6H126.7z M147.7,115.4c-0.4,0.9-0.8,1.5-1.2,1.9c-0.5,0.5-1.2,0.7-2.5,0.7c-0.9,0-1.6,0-2-0.2
			c-0.4-0.2-0.5-0.7-0.5-1.6v-3.6h1.7c1.9,0,2.1,0.1,2.4,1.5h0.7v-4h-0.7c-0.3,1.4-0.5,1.5-2.4,1.5h-1.7v-4.4c0-0.7,0.1-0.7,0.8-0.7
			h1.3c1.3,0,1.9,0.1,2.3,0.5s0.6,1,0.8,1.7l0.7-0.1c-0.1-1.2-0.2-2.6-0.2-3h-10v0.7c1.6,0.1,1.8,0.2,1.8,2v7.9c0,1.7-0.2,1.8-2.1,2
			v0.6h10.8c0.2-0.6,0.6-2.5,0.8-3.3L147.7,115.4z M158.3,105.7v0.7c1.6,0.1,1.8,0.2,1.8,2v7.9c0,1.7-0.2,1.8-2,2v0.6h5.4
			c2.7,0,4.9-0.5,6.5-1.7c1.6-1.2,2.7-2.9,2.7-5.4c0-1.9-0.8-3.4-1.9-4.3c-1.4-1.2-3.4-1.7-6.2-1.7L158.3,105.7L158.3,105.7z
			 M162.6,107.8c0-0.7,0.1-1,0.2-1.1c0.2-0.1,0.6-0.3,1.5-0.3c1.5,0,2.6,0.4,3.6,1.1c1.3,0.9,2,2.5,2,4.5c0,3.4-2,5.9-5.3,5.9
			c-1.5,0-2-0.5-2-1.9L162.6,107.8L162.6,107.8z M196.1,118.8v-0.6c-1.4-0.2-1.7-0.4-2.4-2.2c-1.4-3.5-2.8-7.1-4.2-10.6l-0.9,0.2
			l-4.4,10.4c-0.7,1.7-1,1.9-2.4,2.1v0.6h4.8v-0.6c-1.6-0.2-1.7-0.4-1.3-1.5c0.3-0.8,0.6-1.6,0.9-2.3h4.3c0.4,1,0.8,1.9,1,2.6
			c0.3,0.9,0.2,1.1-1.1,1.3v0.6H196.1z M189.9,113.3h-3.6c0.6-1.5,1.2-3.1,1.8-4.6h0.1L189.9,113.3z M206,105.7v0.7
			c1.6,0.1,1.8,0.2,1.8,2v7.9c0,1.7-0.2,1.8-2,2v0.6h5.4c2.7,0,4.9-0.5,6.5-1.7c1.6-1.2,2.7-2.9,2.7-5.4c0-1.9-0.8-3.4-1.9-4.3
			c-1.4-1.2-3.4-1.7-6.2-1.7L206,105.7L206,105.7z M210.3,107.8c0-0.7,0.1-1,0.2-1.1c0.2-0.1,0.6-0.3,1.5-0.3c1.5,0,2.6,0.4,3.6,1.1
			c1.3,0.9,2,2.5,2,4.5c0,3.4-2,5.9-5.3,5.9c-1.5,0-2-0.5-2-1.9L210.3,107.8L210.3,107.8z M241.3,115.4c-0.4,0.9-0.8,1.5-1.2,1.9
			c-0.5,0.5-1.2,0.7-2.5,0.7c-0.9,0-1.6,0-2-0.2c-0.4-0.2-0.5-0.7-0.5-1.6v-3.6h1.7c1.9,0,2.1,0.1,2.4,1.5h0.7v-4h-0.7
			c-0.3,1.4-0.5,1.5-2.4,1.5h-1.7v-4.4c0-0.7,0.1-0.7,0.8-0.7h1.3c1.3,0,1.9,0.1,2.3,0.5s0.6,1,0.8,1.7l0.7-0.1
			c-0.1-1.2-0.2-2.6-0.2-3h-10v0.7c1.6,0.1,1.8,0.2,1.8,2v7.9c0,1.7-0.2,1.8-2.1,2v0.6h10.8c0.2-0.6,0.6-2.5,0.8-3.3L241.3,115.4z
			 M260.4,108.7c-0.2-1.3-0.3-2.1-0.4-2.9c-0.6-0.2-1.7-0.5-2.9-0.5c-3,0-4.8,1.7-4.8,3.8c0,2.1,1.8,3.1,3.7,4
			c1.6,0.8,2.7,1.5,2.7,2.8c0,1.4-0.9,2.2-2.3,2.2c-2.1,0-3.3-2.2-3.7-3.4l-0.7,0.2c0.1,1.1,0.4,2.8,0.6,3.3
			c0.3,0.1,0.6,0.3,1.2,0.4c0.6,0.2,1.3,0.3,2.1,0.3c3.1,0,5.1-1.8,5.1-4c0-2.1-1.7-3.1-3.8-4.1c-1.8-0.8-2.7-1.5-2.7-2.8
			c0-1.1,0.9-2.1,2.2-2.1c1.8,0,2.5,1.4,3,2.7L260.4,108.7z M290.5,0H182.1v7.6h100.8v81.1h7.6L290.5,0L290.5,0z M109.8,139.5H7.6
			V88.7H0V147h109.8V139.5z"/>
	</g>
</g>
</svg>
