<?xml version="1.0" encoding="utf-8"?>
<!-- Generator: Adobe Illustrator 19.2.0, SVG Export Plug-In . SVG Version: 6.00 Build 0)  -->
<svg version="1.1" id="svg3010" xmlns:svg="http://www.w3.org/2000/svg"
	 xmlns="http://www.w3.org/2000/svg" xmlns:xlink="http://www.w3.org/1999/xlink" x="0px" y="0px" viewBox="0 0 599.7 74.8"
	 style="enable-background:new 0 0 599.7 74.8;" xml:space="preserve">
<style type="text/css">
	.st0{fill:none;stroke:#1C557F;stroke-miterlimit:10;}
	.st1{fill:#77BDD8;}
	.st2{opacity:0.45;fill:#D5EAEF;enable-background:new    ;}
	.st3{fill:none;stroke:#01C852;stroke-width:0.5;stroke-miterlimit:10;}
	.st4{fill:none;stroke:#1C557F;stroke-width:0.5;stroke-miterlimit:10;}
	.st5{fill:#D5EAEF;}
	.st6{fill:none;stroke:#1C557F;stroke-width:2.6935;stroke-miterlimit:10;}
	.st7{fill:#1C557F;}
	.st8{fill:none;stroke:#01C852;stroke-width:2.1347;stroke-miterlimit:10;}
	.st9{fill:#01C852;}
	.st10{fill:none;stroke:#4F6972;stroke-width:2.1347;stroke-miterlimit:10;}
	.st11{fill:url(#XMLID_2_);}
	.st12{fill:#FFFFFF;}
	.st13{fill:#1C1C1C;}
</style>
<g>
	<polygon class="st0" points="1122.5,554.8 1153.1,554.8 1153.5,574.8 1156.2,584.9 1153,587.2 1121.9,587.2 1119,584.8 
		1122.8,574.9 	"/>
	<line class="st0" x1="1153.5" y1="574.8" x2="1122.8" y2="574.8"/>
	<line class="st0" x1="1118.6" y1="584.8" x2="1156.4" y2="584.8"/>
	<polygon class="st0" points="1133,584.7 1134.1,582.4 1141,582.4 1142,584.7 	"/>
	<polygon class="st1" points="1152.6,555.3 1153,574.3 1123.2,574.3 	"/>
</g>
<polygon class="st2" points="1133.1,421.6 1133.1,440.7 1104.2,440.8 "/>
<g>
	<g>
		<path class="st3" d="M1120.9,443.4h-4.8c-0.3,0-0.5-0.2-0.5-0.5l0,0c0-0.3,0.2-0.5,0.5-0.5h4.8c0.3,0,0.5,0.2,0.5,0.5l0,0
			C1121.4,443.2,1121.2,443.4,1120.9,443.4z"/>
	</g>
	<path class="st4" d="M1134.3,445h-31.4c-1,0-1.8-0.8-1.8-1.8v-0.6c0-1,0.8-1.8,1.8-1.8h31.4c1,0,1.8,0.8,1.8,1.8v0.6
		C1136.1,444.2,1135.3,445,1134.3,445z"/>
	<path class="st4" d="M1104.2,440.8v-18.6c0-0.8,0.5-1.4,1.1-1.4h26.8c0.6,0,1.1,0.6,1.1,1.4v18.6"/>
</g>
<path class="st3" d="M1130.4,439.1H1107c-0.5,0-0.9-0.4-0.9-0.9v-14.5c0-0.5,0.4-0.9,0.9-0.9h23.4c0.5,0,0.9,0.4,0.9,0.9v14.5
	C1131.2,438.7,1130.9,439.1,1130.4,439.1z"/>
<g>
	<polygon class="st5" points="556.5,21.4 438.8,64.8 556.5,74.8 	"/>
	<polyline id="XMLID_49_" class="st6" points="531,17.1 531,1.2 455.6,1.2 455.6,61.1 531,61.1 531,45.8 	"/>
	<g>
		<path class="st7" d="M499.8,39.3c0-1.4-0.5-2.6-1.5-3.6s-2.6-1.9-4.9-2.6c-3.1-0.9-5.5-2.2-7.1-3.8c-1.6-1.6-2.4-3.7-2.4-6.3
			s0.7-4.7,2.2-6.3s3.5-2.6,6.1-2.9V8.6h3.7v5.2c2.6,0.3,4.6,1.4,6.1,3.2c1.4,1.8,2.2,4.2,2.2,7.2h-4.6c0-2-0.5-3.6-1.5-4.8
			s-2.3-1.8-4.1-1.8c-1.8,0-3.2,0.5-4.1,1.4c-0.9,1-1.4,2.3-1.4,3.9c0,1.5,0.5,2.7,1.4,3.7c0.9,0.9,2.7,1.8,5.1,2.7
			c3.2,1,5.5,2.3,7.1,3.8c1.5,1.5,2.3,3.6,2.3,6.2c0,2.7-0.8,4.8-2.4,6.4c-1.6,1.6-3.8,2.5-6.6,2.8V53h-3.7v-4.5
			c-2.7-0.3-4.9-1.3-6.6-2.9c-1.7-1.7-2.5-4.1-2.5-7.4v-0.1h4.4c0,2.4,0.6,4.1,1.8,5.1c1.2,1,2.7,1.5,4.4,1.5c2,0,3.6-0.5,4.7-1.4
			C499.2,42.3,499.8,41,499.8,39.3z"/>
	</g>
	<g>
		<path class="st7" d="M478.8,42.3c0-0.9-0.3-1.7-1-2.4c-0.7-0.7-1.7-1.2-3.2-1.8c-2.1-0.6-3.6-1.5-4.7-2.5c-1.1-1-1.6-2.4-1.6-4.2
			c0-1.7,0.5-3.1,1.5-4.2c1-1.1,2.3-1.7,4-1.9v-3.4h2.4v3.4c1.7,0.2,3.1,0.9,4,2.1c1,1.2,1.4,2.8,1.4,4.8h-3c0-1.3-0.3-2.4-1-3.2
			c-0.6-0.8-1.5-1.2-2.7-1.2c-1.2,0-2.1,0.3-2.7,0.9c-0.6,0.6-0.9,1.5-0.9,2.6c0,1,0.3,1.8,0.9,2.4s1.8,1.2,3.4,1.8
			c2.1,0.7,3.7,1.5,4.7,2.5s1.5,2.4,1.5,4.1c0,1.8-0.5,3.2-1.6,4.2s-2.5,1.7-4.4,1.9v3h-2.4v-2.9c-1.8-0.2-3.2-0.8-4.4-1.9
			c-1.1-1.1-1.7-2.7-1.6-4.9v-0.1h2.9c0,1.6,0.4,2.7,1.2,3.4c0.8,0.7,1.8,1,2.9,1c1.3,0,2.4-0.3,3.1-0.9
			C478.4,44.3,478.8,43.4,478.8,42.3z"/>
	</g>
	<g>
		<path class="st7" d="M520,44.6c0-0.9-0.3-1.7-1-2.4c-0.7-0.7-1.7-1.2-3.2-1.8c-2.1-0.6-3.6-1.5-4.7-2.5s-1.6-2.4-1.6-4.2
			c0-1.7,0.5-3.1,1.5-4.2c1-1.1,2.3-1.7,4-1.9v-3.4h2.4v3.4c1.7,0.2,3.1,0.9,4,2.1c1,1.2,1.4,2.8,1.4,4.8h-3c0-1.3-0.3-2.4-1-3.2
			c-0.6-0.8-1.5-1.2-2.7-1.2c-1.2,0-2.1,0.3-2.7,0.9c-0.6,0.6-0.9,1.5-0.9,2.6c0,1,0.3,1.8,0.9,2.4c0.6,0.6,1.8,1.2,3.4,1.8
			c2.1,0.7,3.7,1.5,4.7,2.5s1.5,2.4,1.5,4.1c0,1.8-0.5,3.2-1.6,4.2c-1.1,1-2.5,1.7-4.4,1.9v3h-2.4v-2.9c-1.8-0.2-3.2-0.8-4.4-1.9
			c-1.1-1.1-1.7-2.7-1.6-4.9v-0.1h2.9c0,1.6,0.4,2.7,1.2,3.4c0.8,0.7,1.8,1,2.9,1c1.3,0,2.4-0.3,3.1-0.9
			C519.6,46.6,520,45.7,520,44.6z"/>
	</g>
	<g id="XMLID_37_">
		<line id="XMLID_39_" class="st6" x1="560.5" y1="31.1" x2="526.8" y2="31.1"/>
		<path id="XMLID_38_" class="st6" d="M547.3,18.6l13.3,11.9c0.4,0.3,0.4,0.9,0,1.3l-13.4,11.4"/>
	</g>
</g>
<g>
	<polygon class="st5" points="360.2,1.1 239.7,68.4 347.9,73.2 	"/>
	<g>
		<circle id="XMLID_36_" class="st8" cx="260.8" cy="24.7" r="10.5"/>
		<circle id="XMLID_35_" class="st9" cx="260.8" cy="24.6" r="5.7"/>
	</g>
	<circle id="XMLID_31_" class="st10" cx="260.8" cy="57.9" r="10.5"/>
	<g>
		<path class="st7" d="M290.7,23.9c0,2.2-0.6,3.9-1.9,5.1c-1.2,1.2-3,1.8-5.4,1.8h-3.8V17.3h4.2c2.2,0,3.8,0.6,5,1.7
			C290.1,20.1,290.7,21.8,290.7,23.9z M288.3,23.9c0-3.2-1.5-4.9-4.5-4.9h-1.9v9.8h1.6C286.7,28.9,288.3,27.2,288.3,23.9z"/>
		<path class="st7" d="M302.5,25.6c0,1.7-0.4,3-1.3,3.9s-2.1,1.4-3.6,1.4c-1,0-1.8-0.2-2.5-0.6c-0.7-0.4-1.3-1.1-1.7-1.9
			s-0.6-1.7-0.6-2.8c0-1.7,0.4-3,1.3-3.9c0.9-0.9,2.1-1.4,3.6-1.4s2.7,0.5,3.5,1.4C302.1,22.7,302.5,24,302.5,25.6z M295.1,25.6
			c0,2.4,0.9,3.5,2.6,3.5s2.6-1.2,2.6-3.5s-0.9-3.5-2.6-3.5c-0.9,0-1.6,0.3-2,0.9S295.1,24.5,295.1,25.6z M296.2,19.3v-0.2
			c0.4-0.4,0.7-0.9,1.1-1.4c0.4-0.5,0.7-1,0.9-1.4h2.5v0.2c-0.3,0.4-0.8,0.9-1.4,1.5c-0.6,0.6-1.2,1.1-1.6,1.4h-1.5V19.3z"/>
		<path class="st7" d="M307.3,30.8h-2.2V16.4h2.2V30.8z"/>
		<path class="st7" d="M316.9,30.8l-0.4-1.4h-0.1c-0.5,0.6-1,1-1.5,1.3c-0.5,0.2-1.1,0.3-1.9,0.3c-1,0-1.8-0.3-2.4-0.8
			s-0.8-1.3-0.8-2.3c0-1.1,0.4-1.9,1.2-2.4c0.8-0.5,2-0.8,3.6-0.9l1.8-0.1V24c0-0.7-0.2-1.1-0.5-1.5c-0.3-0.3-0.8-0.5-1.4-0.5
			c-0.5,0-1,0.1-1.5,0.2c-0.5,0.2-0.9,0.3-1.4,0.5l-0.7-1.6c0.6-0.3,1.2-0.5,1.8-0.7c0.7-0.2,1.3-0.2,1.9-0.2c1.3,0,2.3,0.3,2.9,0.9
			c0.7,0.6,1,1.5,1,2.7v6.9h-1.6V30.8z M313.6,29.3c0.8,0,1.4-0.2,1.9-0.7c0.5-0.4,0.7-1.1,0.7-1.9v-0.9l-1.3,0.1
			c-1,0-1.8,0.2-2.2,0.5s-0.7,0.8-0.7,1.4c0,0.5,0.1,0.8,0.4,1.1C312.7,29.1,313.1,29.3,313.6,29.3z"/>
		<path class="st7" d="M326.8,20.3c0.4,0,0.8,0,1.1,0.1l-0.2,2c-0.3-0.1-0.6-0.1-1-0.1c-0.9,0-1.6,0.3-2.1,0.9s-0.8,1.3-0.8,2.2v5.4
			h-2.2V20.6h1.7l0.3,1.8h0.1c0.3-0.6,0.8-1.1,1.3-1.5C325.5,20.5,326.1,20.3,326.8,20.3z"/>
		<path class="st7" d="M334.3,30.9c-1.6,0-2.8-0.5-3.7-1.4s-1.3-2.2-1.3-3.8c0-1.7,0.4-3,1.2-3.9s2-1.4,3.4-1.4
			c1.4,0,2.4,0.4,3.2,1.2c0.8,0.8,1.2,1.9,1.2,3.4v1.2h-6.8c0,1,0.3,1.8,0.8,2.3s1.2,0.8,2.1,0.8c0.6,0,1.2-0.1,1.7-0.2
			s1.1-0.3,1.7-0.6v1.8c-0.5,0.3-1.1,0.4-1.6,0.5C335.6,30.9,335,30.9,334.3,30.9z M333.9,22c-0.7,0-1.2,0.2-1.7,0.7
			c-0.4,0.4-0.7,1.1-0.7,1.9h4.6c0-0.8-0.2-1.5-0.6-1.9C335.1,22.2,334.6,22,333.9,22z"/>
		<path class="st7" d="M347.7,27.8c0,1-0.4,1.8-1.1,2.3c-0.7,0.5-1.8,0.8-3.1,0.8c-1.4,0-2.5-0.2-3.3-0.6v-1.9
			c1.2,0.6,2.3,0.8,3.4,0.8c1.3,0,2-0.4,2-1.2c0-0.3-0.1-0.5-0.2-0.6c-0.1-0.2-0.4-0.4-0.7-0.5c-0.3-0.2-0.8-0.4-1.4-0.6
			c-1.2-0.5-2-0.9-2.4-1.4c-0.4-0.5-0.6-1-0.6-1.8c0-0.9,0.4-1.6,1.1-2c0.7-0.5,1.7-0.7,2.9-0.7c1.2,0,2.3,0.2,3.4,0.7l-0.7,1.6
			c-1.1-0.5-2-0.7-2.8-0.7c-1.1,0-1.7,0.3-1.7,1c0,0.3,0.1,0.6,0.4,0.8c0.3,0.2,1,0.5,2,0.9c0.8,0.3,1.5,0.6,1.8,0.9
			c0.4,0.3,0.7,0.6,0.9,0.9C347.6,26.9,347.7,27.3,347.7,27.8z"/>
	</g>
	<g>
		<path class="st7" d="M287.9,55.7c0,1.4-0.4,2.4-1.3,3.1c-0.9,0.7-2.2,1.1-3.8,1.1h-1.4v4.9h-2.1V51.7h3.8c1.6,0,2.9,0.3,3.7,1
			C287.5,53.4,287.9,54.4,287.9,55.7z M281.3,58.1h1.1c1.1,0,1.9-0.2,2.4-0.6c0.5-0.4,0.8-1,0.8-1.8s-0.2-1.3-0.7-1.7
			s-1.2-0.6-2.2-0.6h-1.5L281.3,58.1L281.3,58.1z"/>
		<path class="st7" d="M294.7,65c-1.5,0-2.7-0.4-3.6-1.3s-1.3-2.1-1.3-3.7c0-1.6,0.4-2.9,1.2-3.8c0.8-0.9,1.9-1.4,3.3-1.4
			c1.3,0,2.3,0.4,3.1,1.2c0.8,0.8,1.1,1.9,1.1,3.3v1.1h-6.6c0,1,0.3,1.7,0.8,2.2s1.2,0.8,2.1,0.8c0.6,0,1.1-0.1,1.6-0.2
			c0.5-0.1,1-0.3,1.6-0.6v1.7c-0.5,0.2-1,0.4-1.6,0.5C296,64.9,295.4,65,294.7,65z M294.3,56.3c-0.7,0-1.2,0.2-1.6,0.6
			c-0.4,0.4-0.6,1-0.7,1.9h4.5c0-0.8-0.2-1.4-0.6-1.9C295.5,56.5,295,56.3,294.3,56.3z"/>
		<path class="st7" d="M307.7,62c0,1-0.4,1.7-1.1,2.2s-1.7,0.8-3,0.8c-1.3,0-2.4-0.2-3.2-0.6v-1.8c1.2,0.5,2.3,0.8,3.3,0.8
			c1.3,0,1.9-0.4,1.9-1.2c0-0.3-0.1-0.5-0.2-0.6c-0.1-0.2-0.4-0.3-0.7-0.5c-0.3-0.2-0.8-0.4-1.4-0.6c-1.1-0.4-1.9-0.9-2.3-1.3
			c-0.4-0.4-0.6-1-0.6-1.7c0-0.8,0.3-1.5,1-2c0.7-0.5,1.6-0.7,2.8-0.7c1.2,0,2.3,0.2,3.3,0.7l-0.7,1.6c-1.1-0.4-2-0.7-2.7-0.7
			c-1.1,0-1.7,0.3-1.7,1c0,0.3,0.1,0.6,0.4,0.8s0.9,0.5,1.9,0.9c0.8,0.3,1.4,0.6,1.8,0.9c0.4,0.3,0.6,0.6,0.8,0.9
			C307.6,61.1,307.7,61.5,307.7,62z"/>
		<path class="st7" d="M318.8,59.8c0,1.6-0.4,2.9-1.2,3.8c-0.8,0.9-2,1.4-3.5,1.4c-0.9,0-1.7-0.2-2.5-0.6c-0.7-0.4-1.3-1-1.6-1.8
			s-0.6-1.7-0.6-2.7c0-1.6,0.4-2.9,1.2-3.8c0.8-0.9,2-1.4,3.5-1.4c1.4,0,2.6,0.5,3.4,1.4C318.4,57,318.8,58.3,318.8,59.8z
			 M311.6,59.8c0,2.3,0.8,3.4,2.5,3.4c1.7,0,2.5-1.1,2.5-3.4c0-2.3-0.8-3.4-2.5-3.4c-0.9,0-1.5,0.3-1.9,0.9
			C311.8,57.9,311.6,58.7,311.6,59.8z"/>
		<path class="st7" d="M328,62c0,1-0.4,1.7-1.1,2.2c-0.7,0.5-1.7,0.8-3,0.8c-1.3,0-2.4-0.2-3.2-0.6v-1.8c1.2,0.5,2.3,0.8,3.3,0.8
			c1.3,0,1.9-0.4,1.9-1.2c0-0.3-0.1-0.5-0.2-0.6c-0.1-0.2-0.4-0.3-0.7-0.5c-0.3-0.2-0.8-0.4-1.4-0.6c-1.1-0.4-1.9-0.9-2.3-1.3
			c-0.4-0.4-0.6-1-0.6-1.7c0-0.8,0.3-1.5,1-2c0.7-0.5,1.6-0.7,2.8-0.7c1.2,0,2.3,0.2,3.3,0.7l-0.7,1.6c-1.1-0.4-2-0.7-2.7-0.7
			c-1.1,0-1.7,0.3-1.7,1c0,0.3,0.1,0.6,0.4,0.8c0.3,0.2,0.9,0.5,1.9,0.9c0.8,0.3,1.4,0.6,1.8,0.9c0.4,0.3,0.6,0.6,0.8,0.9
			C327.9,61.1,328,61.5,328,62z"/>
	</g>
</g>
<g>
	<polygon class="st5" points="179,19.8 23,56.8 179,68.8 	"/>
	
		<linearGradient id="XMLID_2_" gradientUnits="userSpaceOnUse" x1="21.2209" y1="37.75" x2="160.3278" y2="37.75" gradientTransform="matrix(1 0 0 -1 0 76)">
		<stop  offset="1.076729e-07" style="stop-color:#FF6D21"/>
		<stop  offset="1" style="stop-color:#FFC724"/>
	</linearGradient>
	<path id="XMLID_50_" class="st11" d="M158.2,58.5H23.3c-1.2,0-2.1-1-2.1-2.1V20.1c0-1.2,1-2.1,2.1-2.1h134.9c1.2,0,2.1,1,2.1,2.1
		v36.3C160.4,57.6,159.4,58.5,158.2,58.5z"/>
	<g>
		<g>
			<path id="path4109_2_" class="st12" d="M124.9,44.2c0,0.2,0,0.5,0,0.7V45h-0.1c-0.2,0-0.5,0-0.7,0c0,2.5,0,4.9,0,7.4v0.1H124
				c-0.2,0-0.4,0-0.6,0h-0.1v-0.1c0-0.2,0-0.5,0-0.7c-0.8,0-1.7,0-2.5,0c0,0.8,0,1.7,0,2.5c0.2,0,0.5,0,0.7,0h0.1v0.1
				c0,0.2,0,0.5,0,0.7c0.2,0,0.5,0,0.7,0h0.1v0.1c0,0.5,0,1,0,1.5c0.2,0,0.5,0,0.7,0h0.1v0.1c0,0.5,0,1,0,1.5c0.2,0,0.5,0,0.7,0h0.1
				v0.1c0,0.5,0,1,0,1.5c0.2,0,0.5,0,0.7,0h0.1v0.1c0,0.8,0,1.6,0,2.4c1.4,0,2.7,0,4.1,0s2.8,0,4.2,0c0-0.8,0-1.6,0-2.4v-0.1h0.1
				c0.2,0,0.5,0,0.7,0c0-0.8,0-1.6,0-2.4v-0.1h0.1c0.2,0,0.5,0,0.7,0c0-0.9,0-1.8,0-2.6l0,0l0,0c0-1.1,0-2.1,0-3.2
				c-0.2,0-0.5,0-0.7,0h-0.1v-0.1c0-0.2,0-0.5,0-0.7c-0.2,0-0.5,0-0.7,0h-0.1v-0.1c0-0.2,0-0.5,0-0.7c-0.5,0-1,0-1.6,0h-0.1v-0.1
				c0-0.2,0-0.5,0-0.7c-0.8,0-1.6,0-2.4,0h-0.1V49c0-0.2,0-0.5,0-0.7c-0.5,0-1,0-1.5,0h-0.1v-0.1c0-1.1,0-2.1,0-3.2
				c-0.1,0-0.3,0-0.4,0s-0.2,0-0.3,0h-0.1v-0.1c0-0.2,0-0.5,0-0.7C126,44.2,125.5,44.2,124.9,44.2L124.9,44.2z"/>
		</g>
		<path id="path3016_2_" class="st13" d="M124.9,44.2c0.5,0,1.1,0,1.6,0c0,0.3,0,0.5,0,0.8c-0.6,0-1.1,0-1.7,0
			C124.9,44.7,124.9,44.4,124.9,44.2z"/>
		<path id="path3018_2_" class="st13" d="M124.1,45c0.3,0,0.6,0,0.8,0c0,3.1,0,6.1,0,9.2c-0.3,0-0.6,0-0.8,0c0-0.3,0-0.5,0-0.8
			c-0.3,0-0.6,0-0.8,0c0-0.3,0-0.6,0-0.8c0.3,0,0.6,0,0.8,0C124.1,50,124.1,47.5,124.1,45L124.1,45z"/>
		<path id="path3020_2_" class="st13" d="M126.6,45c0.3,0,0.6,0,0.8,0c0,1.1,0,2.2,0,3.3c0.6,0,1.1,0,1.7,0c0,0.3,0,0.6,0,0.8
			c0.8,0,1.7,0,2.5,0c0,0.3,0,0.5,0,0.8c0.6,0,1.1,0,1.7,0c0,0.3,0,0.6,0,0.8c0.3,0,0.6,0,0.8,0c0,0.3,0,0.5,0,0.8
			c0.3,0,0.5,0,0.8,0c0,1.1,0,2.1,0,3.2c0,0.9,0,1.8,0,2.7c-0.3,0-0.5,0-0.8,0c0,0.8,0,1.6,0,2.5c-0.3,0-0.5,0-0.8,0
			c0-0.8,0-1.7,0-2.5c0.3,0,0.5,0,0.8,0c0-1.9,0-3.9,0-5.8c-0.3,0-0.5,0-0.8,0c0-0.3,0-0.5,0-0.8c-0.3-0.1-0.6,0-0.8,0
			c0,0.8,0,1.7,0,2.5c-0.3,0-0.5,0-0.8,0c0-1.1,0-2.2,0-3.3c-0.6,0-1.1,0-1.7,0c0,0.8,0,1.7,0,2.5c-0.3,0-0.6,0-0.8,0
			c0-1.1,0-2.2,0-3.3c-0.6,0-1.1,0-1.7,0c0,1.1,0,2.2,0,3.3c-0.3,0-0.6,0-0.8,0C126.6,50,126.6,47.5,126.6,45L126.6,45z"/>
		<path id="path3026_2_" class="st13" d="M120.8,51.7c0.8,0,1.7,0,2.5,0c0,0.3,0,0.6,0,0.8c-0.6,0-1.1,0-1.7,0c0,0.6,0,1.1,0,1.7
			c-0.3,0-0.6,0-0.8,0C120.8,53.3,120.8,52.5,120.8,51.7z"/>
		<path id="path3030_2_" class="st13" d="M121.6,54.2c0.3,0,0.5,0,0.8,0c0,0.3,0,0.6,0,0.8c0.3,0,0.6,0,0.8,0c0,0.6,0,1.1,0,1.7
			c0.3,0,0.5,0,0.8,0c0,0.6,0,1.1,0,1.7c-0.3,0-0.5,0-0.8,0c0-0.5,0-1.1,0-1.6c-0.3,0-0.6,0-0.8,0c0-0.5,0-1.1,0-1.6
			c-0.3,0-0.5,0-0.8,0C121.6,54.7,121.6,54.4,121.6,54.2L121.6,54.2z"/>
		<path id="path3038_2_" class="st13" d="M124.1,58.3c0.3,0,0.5,0,0.8,0c0,0.6,0,1.1,0,1.7c0.3,0,0.6,0,0.8,0c0,0.6,0,1.1,0,1.7
			c2.2,0,4.4,0,6.6,0c0-0.6,0-1.1,0-1.7c0.3,0,0.6,0,0.9,0c0,0.8,0,1.7,0,2.5c-1.4,0-2.8,0-4.2,0c-1.4,0-2.7,0-4.1,0
			c0-0.8,0-1.7,0-2.5c-0.3,0-0.5,0-0.8,0C124.1,59.4,124.1,58.9,124.1,58.3L124.1,58.3z"/>
	</g>
	<g id="XMLID_12_">
		<g>
			<g>
				<path class="st12" d="M68.6,43.5v-10h1.6v10H68.6z"/>
				<path class="st12" d="M81.4,43.5h-2l-4.9-8h-0.1v0.4c0.1,0.8,0.1,1.6,0.1,2.3v5.2H73v-10h2l4.9,7.9l0,0c0-0.1,0-0.5-0.1-1.1
					c0-0.7,0-1.2,0-1.5v-5.2h1.5v10H81.4z"/>
				<path class="st12" d="M89.9,33.5h1.7l-3.5,10h-1.7l-3.5-10h1.7l2.1,6.2c0.1,0.3,0.2,0.7,0.3,1.1c0.1,0.5,0.2,0.8,0.2,1
					c0.1-0.3,0.2-0.7,0.3-1.2c0.1-0.5,0.2-0.8,0.3-1L89.9,33.5z"/>
				<path class="st12" d="M98.7,43.5H93v-10h5.7v1.4h-4v2.7h3.8V39h-3.8v3.1h4V43.5z"/>
				<path class="st12" d="M102.7,39.5v4h-1.6v-10h2.8c1.3,0,2.2,0.2,2.9,0.7c0.6,0.5,0.9,1.2,0.9,2.2c0,1.2-0.6,2.1-1.9,2.7l2.8,4.4
					h-1.9l-2.4-4L102.7,39.5L102.7,39.5z M102.7,38.2h1.1c0.8,0,1.3-0.1,1.7-0.4c0.3-0.3,0.5-0.7,0.5-1.3c0-0.6-0.2-1-0.6-1.2
					s-0.9-0.4-1.7-0.4h-1.1v3.3H102.7z"/>
				<path class="st12" d="M113.6,43.5H112v-8.6h-2.9v-1.4h7.5v1.4h-2.9v8.6H113.6z"/>
				<path class="st12" d="M118.3,43.5v-10h1.6v10H118.3z"/>
				<path class="st12" d="M124.3,39.5v4h-1.6v-10h2.8c1.3,0,2.2,0.2,2.9,0.7c0.6,0.5,0.9,1.2,0.9,2.2c0,1.2-0.6,2.1-1.9,2.7l2.8,4.4
					h-1.9l-2.4-4L124.3,39.5L124.3,39.5z M124.3,38.2h1.1c0.8,0,1.3-0.1,1.7-0.4c0.3-0.3,0.5-0.7,0.5-1.3c0-0.6-0.2-1-0.6-1.2
					s-0.9-0.4-1.7-0.4h-1.1v3.3H124.3z"/>
			</g>
		</g>
		<g id="XMLID_13_">
			<path id="XMLID_19_" class="st12" d="M52.8,43.4h-1.1c-0.4,0-0.7-0.3-0.7-0.7v-3.1c0-0.4,0.3-0.7,0.7-0.7h1.1
				c0.4,0,0.7,0.3,0.7,0.7v3.1C53.5,43.1,53.2,43.4,52.8,43.4z"/>
			<path id="XMLID_18_" class="st12" d="M57.1,43.4H56c-0.4,0-0.7-0.3-0.7-0.7v-6.6c0-0.4,0.3-0.7,0.7-0.7h1.1
				c0.4,0,0.7,0.3,0.7,0.7v6.6C57.8,43.1,57.5,43.4,57.1,43.4z"/>
			<path id="XMLID_16_" class="st12" d="M61.5,43.4h-1.1c-0.4,0-0.7-0.3-0.7-0.7V32.6c0-0.4,0.3-0.7,0.7-0.7h1.1
				c0.4,0,0.7,0.3,0.7,0.7v10.1C62.2,43.1,61.9,43.4,61.5,43.4z"/>
		</g>
	</g>
</g>
</svg>
